<mxfile host="app.diagrams.net" agent="Mozilla/5.0 (Windows NT 10.0; Win64; x64) AppleWebKit/537.36 (KHTML, like Gecko) Chrome/133.0.0.0 Safari/537.36" version="26.1.0">
  <diagram name="Page-1" id="13e1069c-82ec-6db2-03f1-153e76fe0fe0">
    <mxGraphModel dx="1434" dy="756" grid="1" gridSize="10" guides="1" tooltips="1" connect="1" arrows="1" fold="1" page="1" pageScale="1" pageWidth="1169" pageHeight="827" background="none" math="0" shadow="0">
      <root>
        <mxCell id="0" />
        <mxCell id="1" parent="0" />
        <mxCell id="-f6B1NM6M-wUECebMXWh-3" value="Authentication system" style="rounded=1;whiteSpace=wrap;html=1;" vertex="1" parent="1">
          <mxGeometry x="370" y="100" width="120" height="60" as="geometry" />
        </mxCell>
        <mxCell id="-f6B1NM6M-wUECebMXWh-4" value="Booking System" style="rounded=1;whiteSpace=wrap;html=1;" vertex="1" parent="1">
          <mxGeometry x="560" y="100" width="120" height="60" as="geometry" />
        </mxCell>
        <mxCell id="-f6B1NM6M-wUECebMXWh-5" value="Billing System" style="rounded=1;whiteSpace=wrap;html=1;" vertex="1" parent="1">
          <mxGeometry x="760" y="100" width="120" height="60" as="geometry" />
        </mxCell>
        <mxCell id="-f6B1NM6M-wUECebMXWh-6" value="Customer" style="shape=umlActor;verticalLabelPosition=bottom;verticalAlign=top;html=1;outlineConnect=0;" vertex="1" parent="1">
          <mxGeometry x="240" y="100" width="30" height="60" as="geometry" />
        </mxCell>
        <mxCell id="-f6B1NM6M-wUECebMXWh-12" value="" style="endArrow=none;dashed=1;html=1;rounded=0;" edge="1" parent="1" target="-f6B1NM6M-wUECebMXWh-6">
          <mxGeometry width="50" height="50" relative="1" as="geometry">
            <mxPoint x="255" y="790" as="sourcePoint" />
            <mxPoint x="254.5" y="140" as="targetPoint" />
          </mxGeometry>
        </mxCell>
        <mxCell id="-f6B1NM6M-wUECebMXWh-13" value="" style="endArrow=none;dashed=1;html=1;rounded=0;entryX=0.5;entryY=1;entryDx=0;entryDy=0;" edge="1" parent="1" source="-f6B1NM6M-wUECebMXWh-52" target="-f6B1NM6M-wUECebMXWh-3">
          <mxGeometry width="50" height="50" relative="1" as="geometry">
            <mxPoint x="430" y="780" as="sourcePoint" />
            <mxPoint x="430" y="200" as="targetPoint" />
          </mxGeometry>
        </mxCell>
        <mxCell id="-f6B1NM6M-wUECebMXWh-14" value="" style="endArrow=none;dashed=1;html=1;rounded=0;entryX=0.5;entryY=1;entryDx=0;entryDy=0;" edge="1" parent="1" target="-f6B1NM6M-wUECebMXWh-4">
          <mxGeometry width="50" height="50" relative="1" as="geometry">
            <mxPoint x="619.5" y="790" as="sourcePoint" />
            <mxPoint x="619.5" y="170" as="targetPoint" />
          </mxGeometry>
        </mxCell>
        <mxCell id="-f6B1NM6M-wUECebMXWh-15" value="" style="endArrow=none;dashed=1;html=1;rounded=0;entryX=0.5;entryY=1;entryDx=0;entryDy=0;" edge="1" parent="1" source="-f6B1NM6M-wUECebMXWh-51" target="-f6B1NM6M-wUECebMXWh-5">
          <mxGeometry width="50" height="50" relative="1" as="geometry">
            <mxPoint x="819.5" y="810" as="sourcePoint" />
            <mxPoint x="820" y="180" as="targetPoint" />
          </mxGeometry>
        </mxCell>
        <mxCell id="-f6B1NM6M-wUECebMXWh-16" value="" style="endArrow=classic;html=1;rounded=0;" edge="1" parent="1" target="-f6B1NM6M-wUECebMXWh-52">
          <mxGeometry width="50" height="50" relative="1" as="geometry">
            <mxPoint x="260" y="230" as="sourcePoint" />
            <mxPoint x="420" y="230" as="targetPoint" />
          </mxGeometry>
        </mxCell>
        <mxCell id="-f6B1NM6M-wUECebMXWh-17" value="Enters username &amp;amp; password" style="edgeLabel;html=1;align=center;verticalAlign=middle;resizable=0;points=[];" vertex="1" connectable="0" parent="-f6B1NM6M-wUECebMXWh-16">
          <mxGeometry x="-0.0353" y="1" relative="1" as="geometry">
            <mxPoint as="offset" />
          </mxGeometry>
        </mxCell>
        <mxCell id="-f6B1NM6M-wUECebMXWh-18" value="" style="endArrow=classic;html=1;rounded=0;" edge="1" parent="1" source="-f6B1NM6M-wUECebMXWh-52">
          <mxGeometry width="50" height="50" relative="1" as="geometry">
            <mxPoint x="430" y="270" as="sourcePoint" />
            <mxPoint x="260" y="270" as="targetPoint" />
          </mxGeometry>
        </mxCell>
        <mxCell id="-f6B1NM6M-wUECebMXWh-20" value="Verify Deitals" style="edgeLabel;html=1;align=center;verticalAlign=middle;resizable=0;points=[];" vertex="1" connectable="0" parent="-f6B1NM6M-wUECebMXWh-18">
          <mxGeometry x="0.0471" relative="1" as="geometry">
            <mxPoint as="offset" />
          </mxGeometry>
        </mxCell>
        <mxCell id="-f6B1NM6M-wUECebMXWh-21" value="Alt" style="shape=umlFrame;whiteSpace=wrap;html=1;pointerEvents=0;" vertex="1" parent="1">
          <mxGeometry x="130" y="290" width="760" height="430" as="geometry" />
        </mxCell>
        <mxCell id="-f6B1NM6M-wUECebMXWh-23" value="Valid Details" style="text;html=1;align=center;verticalAlign=middle;resizable=0;points=[];autosize=1;strokeColor=none;fillColor=none;" vertex="1" parent="1">
          <mxGeometry x="140" y="328" width="90" height="30" as="geometry" />
        </mxCell>
        <mxCell id="-f6B1NM6M-wUECebMXWh-24" value="" style="endArrow=classic;html=1;rounded=0;dashed=1;" edge="1" parent="1" source="-f6B1NM6M-wUECebMXWh-52">
          <mxGeometry width="50" height="50" relative="1" as="geometry">
            <mxPoint x="430" y="310" as="sourcePoint" />
            <mxPoint x="260" y="310" as="targetPoint" />
          </mxGeometry>
        </mxCell>
        <mxCell id="-f6B1NM6M-wUECebMXWh-25" value="Login Successful" style="edgeLabel;html=1;align=center;verticalAlign=middle;resizable=0;points=[];" vertex="1" connectable="0" parent="-f6B1NM6M-wUECebMXWh-24">
          <mxGeometry x="0.0471" relative="1" as="geometry">
            <mxPoint as="offset" />
          </mxGeometry>
        </mxCell>
        <mxCell id="-f6B1NM6M-wUECebMXWh-34" value="checks&lt;br&gt;Availability" style="text;html=1;align=center;verticalAlign=middle;resizable=0;points=[];autosize=1;strokeColor=none;fillColor=none;" vertex="1" parent="1">
          <mxGeometry x="540" y="463" width="80" height="40" as="geometry" />
        </mxCell>
        <mxCell id="-f6B1NM6M-wUECebMXWh-37" value="" style="endArrow=classic;html=1;rounded=0;" edge="1" parent="1" target="-f6B1NM6M-wUECebMXWh-51">
          <mxGeometry width="50" height="50" relative="1" as="geometry">
            <mxPoint x="620" y="560" as="sourcePoint" />
            <mxPoint x="810" y="560" as="targetPoint" />
          </mxGeometry>
        </mxCell>
        <mxCell id="-f6B1NM6M-wUECebMXWh-38" value="Sends Details for billing" style="edgeLabel;html=1;align=center;verticalAlign=middle;resizable=0;points=[];" vertex="1" connectable="0" parent="-f6B1NM6M-wUECebMXWh-37">
          <mxGeometry x="-0.0353" y="1" relative="1" as="geometry">
            <mxPoint as="offset" />
          </mxGeometry>
        </mxCell>
        <mxCell id="-f6B1NM6M-wUECebMXWh-39" value="" style="endArrow=classic;html=1;rounded=0;" edge="1" parent="1" target="-f6B1NM6M-wUECebMXWh-64">
          <mxGeometry width="50" height="50" relative="1" as="geometry">
            <mxPoint x="820" y="600" as="sourcePoint" />
            <mxPoint x="630" y="600" as="targetPoint" />
          </mxGeometry>
        </mxCell>
        <mxCell id="-f6B1NM6M-wUECebMXWh-40" value="Calculate total&amp;nbsp;" style="edgeLabel;html=1;align=center;verticalAlign=middle;resizable=0;points=[];" vertex="1" connectable="0" parent="-f6B1NM6M-wUECebMXWh-39">
          <mxGeometry x="0.0471" relative="1" as="geometry">
            <mxPoint as="offset" />
          </mxGeometry>
        </mxCell>
        <mxCell id="-f6B1NM6M-wUECebMXWh-45" value="Invalid Details" style="text;html=1;align=center;verticalAlign=middle;resizable=0;points=[];autosize=1;strokeColor=none;fillColor=none;" vertex="1" parent="1">
          <mxGeometry x="130" y="668" width="100" height="30" as="geometry" />
        </mxCell>
        <mxCell id="-f6B1NM6M-wUECebMXWh-46" value="" style="endArrow=classic;html=1;rounded=0;dashed=1;" edge="1" parent="1">
          <mxGeometry width="50" height="50" relative="1" as="geometry">
            <mxPoint x="430" y="698" as="sourcePoint" />
            <mxPoint x="260" y="698" as="targetPoint" />
          </mxGeometry>
        </mxCell>
        <mxCell id="-f6B1NM6M-wUECebMXWh-47" value="Login Failed" style="edgeLabel;html=1;align=center;verticalAlign=middle;resizable=0;points=[];" vertex="1" connectable="0" parent="-f6B1NM6M-wUECebMXWh-46">
          <mxGeometry x="0.0471" relative="1" as="geometry">
            <mxPoint as="offset" />
          </mxGeometry>
        </mxCell>
        <mxCell id="-f6B1NM6M-wUECebMXWh-53" value="" style="endArrow=none;dashed=1;html=1;rounded=0;entryX=0.5;entryY=1;entryDx=0;entryDy=0;" edge="1" parent="1" target="-f6B1NM6M-wUECebMXWh-52">
          <mxGeometry width="50" height="50" relative="1" as="geometry">
            <mxPoint x="430" y="810" as="sourcePoint" />
            <mxPoint x="430" y="160" as="targetPoint" />
          </mxGeometry>
        </mxCell>
        <mxCell id="-f6B1NM6M-wUECebMXWh-52" value="" style="html=1;points=[[0,0,0,0,5],[0,1,0,0,-5],[1,0,0,0,5],[1,1,0,0,-5]];perimeter=orthogonalPerimeter;outlineConnect=0;targetShapes=umlLifeline;portConstraint=eastwest;newEdgeStyle={&quot;curved&quot;:0,&quot;rounded&quot;:0};" vertex="1" parent="1">
          <mxGeometry x="425" y="220" width="10" height="560" as="geometry" />
        </mxCell>
        <mxCell id="-f6B1NM6M-wUECebMXWh-54" value="" style="endArrow=classic;html=1;rounded=0;dashed=1;" edge="1" parent="1">
          <mxGeometry width="50" height="50" relative="1" as="geometry">
            <mxPoint x="620" y="620" as="sourcePoint" />
            <mxPoint x="260" y="620" as="targetPoint" />
          </mxGeometry>
        </mxCell>
        <mxCell id="-f6B1NM6M-wUECebMXWh-55" value="Display Bill" style="edgeLabel;html=1;align=center;verticalAlign=middle;resizable=0;points=[];" vertex="1" connectable="0" parent="-f6B1NM6M-wUECebMXWh-54">
          <mxGeometry x="0.0471" relative="1" as="geometry">
            <mxPoint as="offset" />
          </mxGeometry>
        </mxCell>
        <mxCell id="-f6B1NM6M-wUECebMXWh-57" value="" style="endArrow=classic;html=1;rounded=0;" edge="1" parent="1" target="-f6B1NM6M-wUECebMXWh-64">
          <mxGeometry width="50" height="50" relative="1" as="geometry">
            <mxPoint x="260" y="420" as="sourcePoint" />
            <mxPoint x="620" y="420" as="targetPoint" />
          </mxGeometry>
        </mxCell>
        <mxCell id="-f6B1NM6M-wUECebMXWh-58" value="Enters Booking Details" style="edgeLabel;html=1;align=center;verticalAlign=middle;resizable=0;points=[];" vertex="1" connectable="0" parent="-f6B1NM6M-wUECebMXWh-57">
          <mxGeometry x="-0.0353" y="1" relative="1" as="geometry">
            <mxPoint as="offset" />
          </mxGeometry>
        </mxCell>
        <mxCell id="-f6B1NM6M-wUECebMXWh-59" value="" style="endArrow=classic;html=1;rounded=0;" edge="1" parent="1" source="-f6B1NM6M-wUECebMXWh-64">
          <mxGeometry width="50" height="50" relative="1" as="geometry">
            <mxPoint x="620" y="380" as="sourcePoint" />
            <mxPoint x="260" y="380" as="targetPoint" />
          </mxGeometry>
        </mxCell>
        <mxCell id="-f6B1NM6M-wUECebMXWh-60" value="Shows Options" style="edgeLabel;html=1;align=center;verticalAlign=middle;resizable=0;points=[];" vertex="1" connectable="0" parent="-f6B1NM6M-wUECebMXWh-59">
          <mxGeometry x="0.0471" relative="1" as="geometry">
            <mxPoint as="offset" />
          </mxGeometry>
        </mxCell>
        <mxCell id="-f6B1NM6M-wUECebMXWh-61" value="" style="endArrow=classic;html=1;rounded=0;" edge="1" parent="1" target="-f6B1NM6M-wUECebMXWh-64">
          <mxGeometry width="50" height="50" relative="1" as="geometry">
            <mxPoint x="260" y="350" as="sourcePoint" />
            <mxPoint x="590" y="350" as="targetPoint" />
          </mxGeometry>
        </mxCell>
        <mxCell id="-f6B1NM6M-wUECebMXWh-62" value="Selects Driver and vehicle type" style="edgeLabel;html=1;align=center;verticalAlign=middle;resizable=0;points=[];" vertex="1" connectable="0" parent="-f6B1NM6M-wUECebMXWh-61">
          <mxGeometry x="-0.0353" y="1" relative="1" as="geometry">
            <mxPoint as="offset" />
          </mxGeometry>
        </mxCell>
        <mxCell id="-f6B1NM6M-wUECebMXWh-63" value="" style="endArrow=none;dashed=1;html=1;rounded=0;exitX=0.005;exitY=0.796;exitDx=0;exitDy=0;exitPerimeter=0;entryX=0.999;entryY=0.794;entryDx=0;entryDy=0;entryPerimeter=0;" edge="1" parent="1">
          <mxGeometry width="50" height="50" relative="1" as="geometry">
            <mxPoint x="134" y="664" as="sourcePoint" />
            <mxPoint x="889" y="663" as="targetPoint" />
          </mxGeometry>
        </mxCell>
        <mxCell id="-f6B1NM6M-wUECebMXWh-64" value="" style="html=1;points=[[0,0,0,0,5],[0,1,0,0,-5],[1,0,0,0,5],[1,1,0,0,-5]];perimeter=orthogonalPerimeter;outlineConnect=0;targetShapes=umlLifeline;portConstraint=eastwest;newEdgeStyle={&quot;curved&quot;:0,&quot;rounded&quot;:0};" vertex="1" parent="1">
          <mxGeometry x="615" y="328" width="10" height="312" as="geometry" />
        </mxCell>
        <mxCell id="-f6B1NM6M-wUECebMXWh-65" value="loop" style="shape=umlFrame;whiteSpace=wrap;html=1;pointerEvents=0;" vertex="1" parent="1">
          <mxGeometry x="550" y="430" width="200" height="100" as="geometry" />
        </mxCell>
        <mxCell id="-f6B1NM6M-wUECebMXWh-66" value="" style="endArrow=classic;html=1;rounded=0;" edge="1" parent="1" source="-f6B1NM6M-wUECebMXWh-64" target="-f6B1NM6M-wUECebMXWh-64">
          <mxGeometry width="50" height="50" relative="1" as="geometry">
            <mxPoint x="630" y="460" as="sourcePoint" />
            <mxPoint x="630" y="500" as="targetPoint" />
            <Array as="points">
              <mxPoint x="700" y="460" />
              <mxPoint x="700" y="500" />
            </Array>
          </mxGeometry>
        </mxCell>
        <mxCell id="-f6B1NM6M-wUECebMXWh-67" value="check driver availability" style="edgeLabel;html=1;align=center;verticalAlign=middle;resizable=0;points=[];" vertex="1" connectable="0" parent="-f6B1NM6M-wUECebMXWh-66">
          <mxGeometry x="-0.0049" y="1" relative="1" as="geometry">
            <mxPoint x="-11" y="2" as="offset" />
          </mxGeometry>
        </mxCell>
        <mxCell id="-f6B1NM6M-wUECebMXWh-68" value="" style="endArrow=none;dashed=1;html=1;rounded=0;entryX=0.5;entryY=1;entryDx=0;entryDy=0;" edge="1" parent="1" target="-f6B1NM6M-wUECebMXWh-51">
          <mxGeometry width="50" height="50" relative="1" as="geometry">
            <mxPoint x="819.5" y="810" as="sourcePoint" />
            <mxPoint x="820" y="160" as="targetPoint" />
          </mxGeometry>
        </mxCell>
        <mxCell id="-f6B1NM6M-wUECebMXWh-51" value="" style="html=1;points=[[0,0,0,0,5],[0,1,0,0,-5],[1,0,0,0,5],[1,1,0,0,-5]];perimeter=orthogonalPerimeter;outlineConnect=0;targetShapes=umlLifeline;portConstraint=eastwest;newEdgeStyle={&quot;curved&quot;:0,&quot;rounded&quot;:0};" vertex="1" parent="1">
          <mxGeometry x="815" y="540" width="10" height="80" as="geometry" />
        </mxCell>
        <mxCell id="-f6B1NM6M-wUECebMXWh-69" value="" style="endArrow=classic;html=1;rounded=0;entryX=0.5;entryY=0.02;entryDx=0;entryDy=0;entryPerimeter=0;" edge="1" parent="1">
          <mxGeometry width="50" height="50" relative="1" as="geometry">
            <mxPoint x="255" y="740" as="sourcePoint" />
            <mxPoint x="425" y="741" as="targetPoint" />
          </mxGeometry>
        </mxCell>
        <mxCell id="-f6B1NM6M-wUECebMXWh-70" value="Logout" style="edgeLabel;html=1;align=center;verticalAlign=middle;resizable=0;points=[];" vertex="1" connectable="0" parent="-f6B1NM6M-wUECebMXWh-69">
          <mxGeometry x="-0.0353" y="1" relative="1" as="geometry">
            <mxPoint as="offset" />
          </mxGeometry>
        </mxCell>
      </root>
    </mxGraphModel>
  </diagram>
</mxfile>
